<mxfile host="app.diagrams.net" modified="2021-01-27T10:08:30.105Z" agent="5.0 (Macintosh; Intel Mac OS X 10_15_5) AppleWebKit/537.36 (KHTML, like Gecko) Chrome/87.0.4280.88 Safari/537.36" etag="0wa4Q2iwRs5cT5vQAxJv" version="14.2.7" type="github" pages="5">
  <diagram id="zR_2sqTFxMUZ1YrvqPyX" name="Soort Pagina">
    <mxGraphModel dx="2066" dy="1153" grid="1" gridSize="10" guides="1" tooltips="1" connect="1" arrows="1" fold="1" page="1" pageScale="1" pageWidth="1200" pageHeight="1600" math="0" shadow="0">
      <root>
        <mxCell id="0" />
        <mxCell id="1" parent="0" />
        <mxCell id="uhgydEytuGBEABrdSYqG-6" style="edgeStyle=orthogonalEdgeStyle;rounded=0;orthogonalLoop=1;jettySize=auto;html=1;exitX=0.25;exitY=1;exitDx=0;exitDy=0;entryX=0.421;entryY=-0.004;entryDx=0;entryDy=0;entryPerimeter=0;" parent="1" source="uhgydEytuGBEABrdSYqG-1" target="uhgydEytuGBEABrdSYqG-3" edge="1">
          <mxGeometry relative="1" as="geometry" />
        </mxCell>
        <mxCell id="uhgydEytuGBEABrdSYqG-7" style="edgeStyle=orthogonalEdgeStyle;rounded=0;orthogonalLoop=1;jettySize=auto;html=1;exitX=0.5;exitY=1;exitDx=0;exitDy=0;entryX=0.5;entryY=0;entryDx=0;entryDy=0;" parent="1" source="uhgydEytuGBEABrdSYqG-1" target="uhgydEytuGBEABrdSYqG-5" edge="1">
          <mxGeometry relative="1" as="geometry" />
        </mxCell>
        <mxCell id="uhgydEytuGBEABrdSYqG-8" style="edgeStyle=orthogonalEdgeStyle;rounded=0;orthogonalLoop=1;jettySize=auto;html=1;exitX=0.75;exitY=1;exitDx=0;exitDy=0;" parent="1" source="uhgydEytuGBEABrdSYqG-1" target="uhgydEytuGBEABrdSYqG-4" edge="1">
          <mxGeometry relative="1" as="geometry" />
        </mxCell>
        <mxCell id="uhgydEytuGBEABrdSYqG-1" value="" style="rounded=0;whiteSpace=wrap;html=1;shadow=0;glass=1;sketch=1;" parent="1" vertex="1">
          <mxGeometry x="360" y="40" width="480" height="280" as="geometry" />
        </mxCell>
        <mxCell id="uhgydEytuGBEABrdSYqG-2" value="&lt;p style=&quot;line-height: 140%&quot;&gt;&lt;/p&gt;&lt;h1&gt;Login/Home&lt;/h1&gt;&lt;p&gt;Iedere bezoeker wordt automatisch naar deze pagina geleid op het moment dat hij/zij niet heeft ingelogd.&lt;/p&gt;&lt;p&gt;Vanaf hier word gekeken naar de gebruikers rechten.&lt;/p&gt;&lt;p&gt;&lt;/p&gt;&lt;ol style=&quot;line-height: 140%&quot;&gt;&lt;li&gt;De gebruiker is een klant, deze wordt doorgestuurd naar zijn/haar persoonlijke dashboard.&lt;/li&gt;&lt;li&gt;De gebruiker is een administrator, deze wordt doorgestuurd naar het admin dashboard.&lt;/li&gt;&lt;li&gt;De gebruiker is een werknemer, deze wordt doorgestuurd naar de planning.&lt;/li&gt;&lt;/ol&gt;&lt;div&gt;&lt;br&gt;&lt;/div&gt;&lt;p&gt;&lt;/p&gt;&lt;p&gt;&lt;/p&gt;" style="text;html=1;strokeColor=none;fillColor=none;spacing=5;spacingTop=-20;whiteSpace=wrap;overflow=hidden;rounded=0;perimeterSpacing=10;" parent="1" vertex="1">
          <mxGeometry x="380" y="62.5" width="440" height="235" as="geometry" />
        </mxCell>
        <mxCell id="uhgydEytuGBEABrdSYqG-3" value="" style="rounded=0;whiteSpace=wrap;html=1;shadow=0;glass=0;sketch=1;" parent="1" vertex="1">
          <mxGeometry x="40" y="480" width="480" height="280" as="geometry" />
        </mxCell>
        <mxCell id="uhgydEytuGBEABrdSYqG-4" value="" style="rounded=0;whiteSpace=wrap;html=1;shadow=0;glass=1;sketch=1;" parent="1" vertex="1">
          <mxGeometry x="680" y="480" width="480" height="280" as="geometry" />
        </mxCell>
        <mxCell id="uhgydEytuGBEABrdSYqG-5" value="" style="rounded=0;whiteSpace=wrap;html=1;shadow=0;glass=1;sketch=1;" parent="1" vertex="1">
          <mxGeometry x="360" y="800" width="480" height="480" as="geometry" />
        </mxCell>
        <mxCell id="uhgydEytuGBEABrdSYqG-9" value="&lt;p style=&quot;line-height: 110%&quot;&gt;&lt;/p&gt;&lt;h1&gt;&lt;span&gt;Klanten Dashboard&lt;/span&gt;&lt;/h1&gt;&lt;h1&gt;&lt;span style=&quot;font-size: 12px ; font-weight: 400&quot;&gt;Paginas die voor klanten beschikbaar zijn.&lt;/span&gt;&lt;/h1&gt;&lt;div&gt;&lt;ol&gt;&lt;li style=&quot;line-height: 140%&quot;&gt;Klantgegevens.&lt;/li&gt;&lt;li style=&quot;line-height: 140%&quot;&gt;Lopende opdrachten.&lt;/li&gt;&lt;li style=&quot;line-height: 140%&quot;&gt;Opdrachten klaar niet afgehaald.&lt;/li&gt;&lt;li style=&quot;line-height: 140%&quot;&gt;Opdrachten klaar afgehaald.&lt;/li&gt;&lt;/ol&gt;&lt;/div&gt;&lt;div&gt;&lt;br&gt;&lt;/div&gt;&lt;p&gt;&lt;/p&gt;&lt;p&gt;&lt;/p&gt;" style="text;html=1;strokeColor=none;fillColor=none;spacing=5;spacingTop=-20;whiteSpace=wrap;overflow=hidden;rounded=0;perimeterSpacing=10;" parent="1" vertex="1">
          <mxGeometry x="60" y="502.5" width="440" height="235" as="geometry" />
        </mxCell>
        <mxCell id="uhgydEytuGBEABrdSYqG-10" value="&lt;p style=&quot;line-height: 140%&quot;&gt;&lt;/p&gt;&lt;h1&gt;Planning/Werkplaats&lt;/h1&gt;&lt;div&gt;Paginas die in de werkplaats beschikbaar zijn.&lt;/div&gt;&lt;div&gt;&lt;ol&gt;&lt;li style=&quot;line-height: 140%&quot;&gt;Planning. (Overzicht met opdrachten en bijbehorende stappen in productie)(Kolommen kunnen worden toegevoegd/verwijderd naar wens)&lt;/li&gt;&lt;li style=&quot;line-height: 140%&quot;&gt;Klant informatie. (Mocht een klant gebelt moeten worden)&lt;/li&gt;&lt;li style=&quot;line-height: 140%&quot;&gt;Opdrachten Klaar niet afgehaald. (Een overzicht van alle opdrachten die klaar liggen voor levering)&lt;/li&gt;&lt;/ol&gt;&lt;/div&gt;&lt;p&gt;&lt;/p&gt;&lt;p&gt;&lt;/p&gt;" style="text;html=1;strokeColor=none;fillColor=none;spacing=5;spacingTop=-20;whiteSpace=wrap;overflow=hidden;rounded=0;perimeterSpacing=10;" parent="1" vertex="1">
          <mxGeometry x="700" y="502.5" width="440" height="235" as="geometry" />
        </mxCell>
        <mxCell id="uhgydEytuGBEABrdSYqG-11" value="&lt;p style=&quot;line-height: 140%&quot;&gt;&lt;/p&gt;&lt;h1&gt;&lt;span&gt;Kantoor/PC&lt;/span&gt;&lt;/h1&gt;&lt;h1&gt;&lt;span style=&quot;font-size: 12px ; font-weight: 400&quot;&gt;Paginas die op het kantoor beschikbaar zijn.&lt;/span&gt;&lt;/h1&gt;&lt;div&gt;&lt;ol&gt;&lt;li&gt;&lt;span style=&quot;font-size: 12px ; font-weight: 400&quot;&gt;Klanten overzicht.&lt;/span&gt;&lt;/li&gt;&lt;li&gt;&lt;span style=&quot;font-size: 12px ; font-weight: 400&quot;&gt;Klant bewerken / verwijderen.&lt;/span&gt;&lt;/li&gt;&lt;li&gt;&lt;span style=&quot;font-size: 12px ; font-weight: 400&quot;&gt;Klant toevoegen.&lt;/span&gt;&lt;/li&gt;&lt;/ol&gt;&lt;ol&gt;&lt;li&gt;&lt;span style=&quot;font-size: 12px ; font-weight: 400&quot;&gt;Gebruikers overzicht.&lt;/span&gt;&lt;/li&gt;&lt;li&gt;&lt;span style=&quot;font-size: 12px ; font-weight: 400&quot;&gt;Gebruiker bewerken / verwijderen.&lt;/span&gt;&lt;/li&gt;&lt;li&gt;&lt;span style=&quot;font-size: 12px ; font-weight: 400&quot;&gt;Gebruiker toevoegen. (Gebruiker krijgt een rol om te voorkomen dat deze gebruiker toegang heeft tot alles)&lt;/span&gt;&lt;/li&gt;&lt;/ol&gt;&lt;ol&gt;&lt;li&gt;&lt;span style=&quot;font-size: 12px ; font-weight: 400&quot;&gt;Soort producten overzicht.&lt;/span&gt;&lt;/li&gt;&lt;li&gt;&lt;span style=&quot;font-size: 12px ; font-weight: 400&quot;&gt;Soort product bewerken / verwijderen.&lt;/span&gt;&lt;/li&gt;&lt;li&gt;&lt;span style=&quot;font-size: 12px ; font-weight: 400&quot;&gt;Soort product toevoegen.&lt;/span&gt;&lt;/li&gt;&lt;/ol&gt;&lt;ol&gt;&lt;li&gt;&lt;span style=&quot;font-size: 12px ; font-weight: 400&quot;&gt;Vakantie dagen overzicht.&lt;/span&gt;&lt;/li&gt;&lt;li&gt;&lt;span style=&quot;font-size: 12px ; font-weight: 400&quot;&gt;Vakantie dagen bewerken / verwijderen.&lt;/span&gt;&lt;/li&gt;&lt;li&gt;&lt;span style=&quot;font-size: 12px ; font-weight: 400&quot;&gt;Vakantie dagen toevoegen.&lt;/span&gt;&lt;/li&gt;&lt;/ol&gt;&lt;ol&gt;&lt;li&gt;Opdrachten overzicht. (Filterbaar op meerdere kolommen / week / jaar)&lt;/li&gt;&lt;li&gt;Opdracht bewerken / verwijderen.&lt;/li&gt;&lt;li&gt;Opdracht toevoegen.&lt;/li&gt;&lt;/ol&gt;&lt;ol&gt;&lt;li&gt;Opdrachten klaar niet afgehaald overzicht.&lt;/li&gt;&lt;li&gt;Opdrachten Totaal. (Jaar, week of dag overzicht)&lt;/li&gt;&lt;li&gt;Opdrachten overzicht voor bepaalde leverdag. (Filter op dag en week)&lt;/li&gt;&lt;/ol&gt;&lt;/div&gt;&lt;p&gt;&lt;/p&gt;&lt;p&gt;&lt;/p&gt;" style="text;html=1;strokeColor=none;fillColor=none;spacing=5;spacingTop=-20;whiteSpace=wrap;overflow=hidden;rounded=0;perimeterSpacing=10;" parent="1" vertex="1">
          <mxGeometry x="380" y="822.5" width="440" height="437.5" as="geometry" />
        </mxCell>
      </root>
    </mxGraphModel>
  </diagram>
  <diagram id="aS9piY_F0bnPfKVt-1DO" name="Login-pagina">
    <mxGraphModel dx="2066" dy="1153" grid="1" gridSize="10" guides="1" tooltips="1" connect="1" arrows="1" fold="1" page="1" pageScale="1" pageWidth="1200" pageHeight="1600" math="0" shadow="0">
      <root>
        <mxCell id="40Z0YA3f_dxGeV-_oIXX-0" />
        <mxCell id="40Z0YA3f_dxGeV-_oIXX-1" parent="40Z0YA3f_dxGeV-_oIXX-0" />
        <mxCell id="40Z0YA3f_dxGeV-_oIXX-2" value="" style="rounded=0;whiteSpace=wrap;html=1;shadow=0;glass=1;sketch=1;" parent="40Z0YA3f_dxGeV-_oIXX-1" vertex="1">
          <mxGeometry x="360" y="40" width="480" height="280" as="geometry" />
        </mxCell>
        <mxCell id="40Z0YA3f_dxGeV-_oIXX-10" style="edgeStyle=orthogonalEdgeStyle;rounded=0;orthogonalLoop=1;jettySize=auto;html=1;fillColor=#d5e8d4;strokeColor=#82b366;" parent="40Z0YA3f_dxGeV-_oIXX-1" target="40Z0YA3f_dxGeV-_oIXX-6" edge="1">
          <mxGeometry relative="1" as="geometry">
            <mxPoint x="360" y="185" as="sourcePoint" />
          </mxGeometry>
        </mxCell>
        <mxCell id="40Z0YA3f_dxGeV-_oIXX-3" value="&lt;h1&gt;&lt;span&gt;Login / Home&lt;/span&gt;&lt;/h1&gt;&lt;h1&gt;&lt;span style=&quot;font-size: 12px ; font-weight: normal ; line-height: 70%&quot;&gt;Op deze pagina zal de gebruiker moeten inloggen met zijn/haar email en paswoord.&lt;/span&gt;&lt;br&gt;&lt;/h1&gt;&lt;div&gt;&lt;span style=&quot;font-size: 12px ; font-weight: normal&quot;&gt;Nadat de gebruiker heeft ingelogd zijn er verschillende handelingen die gecontroleerd worden met als gevolg een succesvolle login of een verkeerde login.&lt;/span&gt;&lt;/div&gt;" style="text;html=1;strokeColor=none;fillColor=none;spacing=5;spacingTop=-20;whiteSpace=wrap;overflow=hidden;rounded=0;shadow=0;glass=0;sketch=1;" parent="40Z0YA3f_dxGeV-_oIXX-1" vertex="1">
          <mxGeometry x="380" y="70" width="440" height="230" as="geometry" />
        </mxCell>
        <mxCell id="40Z0YA3f_dxGeV-_oIXX-8" style="edgeStyle=orthogonalEdgeStyle;rounded=0;orthogonalLoop=1;jettySize=auto;html=1;exitX=1;exitY=0.5;exitDx=0;exitDy=0;entryX=0;entryY=0.5;entryDx=0;entryDy=0;fillColor=#d5e8d4;strokeColor=#82b366;" parent="40Z0YA3f_dxGeV-_oIXX-1" source="40Z0YA3f_dxGeV-_oIXX-4" target="40Z0YA3f_dxGeV-_oIXX-7" edge="1">
          <mxGeometry relative="1" as="geometry" />
        </mxCell>
        <mxCell id="40Z0YA3f_dxGeV-_oIXX-4" value="" style="rounded=0;whiteSpace=wrap;html=1;shadow=0;glass=1;sketch=1;" parent="40Z0YA3f_dxGeV-_oIXX-1" vertex="1">
          <mxGeometry x="40" y="360" width="280" height="40" as="geometry" />
        </mxCell>
        <mxCell id="40Z0YA3f_dxGeV-_oIXX-6" value="Gebruiker login met email en paswoord." style="text;html=1;strokeColor=none;fillColor=none;align=center;verticalAlign=middle;whiteSpace=wrap;rounded=0;shadow=0;glass=0;sketch=1;" parent="40Z0YA3f_dxGeV-_oIXX-1" vertex="1">
          <mxGeometry x="60" y="370" width="240" height="20" as="geometry" />
        </mxCell>
        <mxCell id="40Z0YA3f_dxGeV-_oIXX-12" style="edgeStyle=orthogonalEdgeStyle;rounded=0;orthogonalLoop=1;jettySize=auto;html=1;exitX=1;exitY=0.5;exitDx=0;exitDy=0;entryX=0;entryY=0.5;entryDx=0;entryDy=0;fillColor=#f8cecc;strokeColor=#b85450;" parent="40Z0YA3f_dxGeV-_oIXX-1" source="40Z0YA3f_dxGeV-_oIXX-7" target="40Z0YA3f_dxGeV-_oIXX-11" edge="1">
          <mxGeometry relative="1" as="geometry" />
        </mxCell>
        <mxCell id="40Z0YA3f_dxGeV-_oIXX-16" style="edgeStyle=orthogonalEdgeStyle;rounded=0;orthogonalLoop=1;jettySize=auto;html=1;exitX=0.5;exitY=1;exitDx=0;exitDy=0;entryX=0;entryY=0.5;entryDx=0;entryDy=0;fillColor=#f8cecc;strokeColor=#b85450;" parent="40Z0YA3f_dxGeV-_oIXX-1" source="40Z0YA3f_dxGeV-_oIXX-7" target="40Z0YA3f_dxGeV-_oIXX-15" edge="1">
          <mxGeometry relative="1" as="geometry" />
        </mxCell>
        <mxCell id="40Z0YA3f_dxGeV-_oIXX-22" style="edgeStyle=orthogonalEdgeStyle;rounded=0;orthogonalLoop=1;jettySize=auto;html=1;exitX=0.25;exitY=1;exitDx=0;exitDy=0;entryX=0;entryY=0.5;entryDx=0;entryDy=0;fillColor=#d5e8d4;strokeColor=#82b366;" parent="40Z0YA3f_dxGeV-_oIXX-1" source="40Z0YA3f_dxGeV-_oIXX-7" target="40Z0YA3f_dxGeV-_oIXX-19" edge="1">
          <mxGeometry relative="1" as="geometry">
            <Array as="points">
              <mxPoint x="580" y="400" />
              <mxPoint x="580" y="540" />
            </Array>
          </mxGeometry>
        </mxCell>
        <mxCell id="40Z0YA3f_dxGeV-_oIXX-7" value="" style="rounded=0;whiteSpace=wrap;html=1;shadow=0;glass=1;sketch=1;" parent="40Z0YA3f_dxGeV-_oIXX-1" vertex="1">
          <mxGeometry x="440" y="360" width="280" height="40" as="geometry" />
        </mxCell>
        <mxCell id="40Z0YA3f_dxGeV-_oIXX-9" value="Check of gebruiker bestaat in de database." style="text;html=1;strokeColor=none;fillColor=none;align=center;verticalAlign=middle;whiteSpace=wrap;rounded=0;shadow=0;glass=0;sketch=1;" parent="40Z0YA3f_dxGeV-_oIXX-1" vertex="1">
          <mxGeometry x="460" y="370" width="240" height="20" as="geometry" />
        </mxCell>
        <mxCell id="40Z0YA3f_dxGeV-_oIXX-14" style="edgeStyle=orthogonalEdgeStyle;rounded=0;orthogonalLoop=1;jettySize=auto;html=1;exitX=1;exitY=0.5;exitDx=0;exitDy=0;entryX=1;entryY=0.5;entryDx=0;entryDy=0;fillColor=#f8cecc;strokeColor=#b85450;" parent="40Z0YA3f_dxGeV-_oIXX-1" source="40Z0YA3f_dxGeV-_oIXX-11" target="40Z0YA3f_dxGeV-_oIXX-2" edge="1">
          <mxGeometry relative="1" as="geometry" />
        </mxCell>
        <mxCell id="40Z0YA3f_dxGeV-_oIXX-11" value="" style="rounded=0;whiteSpace=wrap;html=1;shadow=0;glass=1;sketch=1;" parent="40Z0YA3f_dxGeV-_oIXX-1" vertex="1">
          <mxGeometry x="880" y="360" width="280" height="40" as="geometry" />
        </mxCell>
        <mxCell id="40Z0YA3f_dxGeV-_oIXX-13" value="Gebruiker bestaat niet, stuur terug naar home." style="text;html=1;strokeColor=none;fillColor=none;align=center;verticalAlign=middle;whiteSpace=wrap;rounded=0;shadow=0;glass=0;sketch=1;" parent="40Z0YA3f_dxGeV-_oIXX-1" vertex="1">
          <mxGeometry x="900" y="370" width="240" height="20" as="geometry" />
        </mxCell>
        <mxCell id="40Z0YA3f_dxGeV-_oIXX-18" style="edgeStyle=orthogonalEdgeStyle;rounded=0;orthogonalLoop=1;jettySize=auto;html=1;exitX=1;exitY=0.5;exitDx=0;exitDy=0;entryX=1;entryY=0.5;entryDx=0;entryDy=0;fillColor=#f8cecc;strokeColor=#b85450;" parent="40Z0YA3f_dxGeV-_oIXX-1" source="40Z0YA3f_dxGeV-_oIXX-15" target="40Z0YA3f_dxGeV-_oIXX-2" edge="1">
          <mxGeometry relative="1" as="geometry">
            <Array as="points">
              <mxPoint x="1180" y="460" />
              <mxPoint x="1180" y="180" />
            </Array>
          </mxGeometry>
        </mxCell>
        <mxCell id="40Z0YA3f_dxGeV-_oIXX-15" value="" style="rounded=0;whiteSpace=wrap;html=1;shadow=0;glass=1;sketch=1;" parent="40Z0YA3f_dxGeV-_oIXX-1" vertex="1">
          <mxGeometry x="880" y="440" width="280" height="40" as="geometry" />
        </mxCell>
        <mxCell id="40Z0YA3f_dxGeV-_oIXX-17" value="Gebruiker bestaat maar paswoord is incorrect, stuur terug naar home." style="text;html=1;strokeColor=none;fillColor=none;align=center;verticalAlign=middle;whiteSpace=wrap;rounded=0;shadow=0;glass=0;sketch=1;" parent="40Z0YA3f_dxGeV-_oIXX-1" vertex="1">
          <mxGeometry x="890" y="450" width="260" height="20" as="geometry" />
        </mxCell>
        <mxCell id="40Z0YA3f_dxGeV-_oIXX-29" style="edgeStyle=orthogonalEdgeStyle;rounded=0;orthogonalLoop=1;jettySize=auto;html=1;exitX=0.75;exitY=1;exitDx=0;exitDy=0;entryX=0.5;entryY=0;entryDx=0;entryDy=0;fillColor=#d5e8d4;strokeColor=#82b366;" parent="40Z0YA3f_dxGeV-_oIXX-1" source="40Z0YA3f_dxGeV-_oIXX-19" target="40Z0YA3f_dxGeV-_oIXX-24" edge="1">
          <mxGeometry relative="1" as="geometry" />
        </mxCell>
        <mxCell id="40Z0YA3f_dxGeV-_oIXX-30" style="edgeStyle=orthogonalEdgeStyle;rounded=0;orthogonalLoop=1;jettySize=auto;html=1;exitX=0.5;exitY=1;exitDx=0;exitDy=0;entryX=0.5;entryY=0;entryDx=0;entryDy=0;fillColor=#d5e8d4;strokeColor=#82b366;" parent="40Z0YA3f_dxGeV-_oIXX-1" source="40Z0YA3f_dxGeV-_oIXX-19" target="40Z0YA3f_dxGeV-_oIXX-23" edge="1">
          <mxGeometry relative="1" as="geometry" />
        </mxCell>
        <mxCell id="40Z0YA3f_dxGeV-_oIXX-31" style="edgeStyle=orthogonalEdgeStyle;rounded=0;orthogonalLoop=1;jettySize=auto;html=1;exitX=0.25;exitY=1;exitDx=0;exitDy=0;entryX=0.5;entryY=0;entryDx=0;entryDy=0;fillColor=#d5e8d4;strokeColor=#82b366;" parent="40Z0YA3f_dxGeV-_oIXX-1" source="40Z0YA3f_dxGeV-_oIXX-19" target="40Z0YA3f_dxGeV-_oIXX-25" edge="1">
          <mxGeometry relative="1" as="geometry" />
        </mxCell>
        <mxCell id="40Z0YA3f_dxGeV-_oIXX-19" value="" style="rounded=0;whiteSpace=wrap;html=1;shadow=0;glass=1;sketch=1;" parent="40Z0YA3f_dxGeV-_oIXX-1" vertex="1">
          <mxGeometry x="880" y="520" width="280" height="40" as="geometry" />
        </mxCell>
        <mxCell id="40Z0YA3f_dxGeV-_oIXX-20" value="Gebruiker bestaat en paswoord is correct, check de toegewezen rol." style="text;html=1;strokeColor=none;fillColor=none;align=center;verticalAlign=middle;whiteSpace=wrap;rounded=0;shadow=0;glass=0;sketch=1;" parent="40Z0YA3f_dxGeV-_oIXX-1" vertex="1">
          <mxGeometry x="890" y="530" width="260" height="20" as="geometry" />
        </mxCell>
        <mxCell id="40Z0YA3f_dxGeV-_oIXX-47" style="edgeStyle=orthogonalEdgeStyle;rounded=0;orthogonalLoop=1;jettySize=auto;html=1;exitX=0.5;exitY=1;exitDx=0;exitDy=0;entryX=0;entryY=0;entryDx=0;entryDy=0;fillColor=#d5e8d4;strokeColor=#82b366;" parent="40Z0YA3f_dxGeV-_oIXX-1" source="40Z0YA3f_dxGeV-_oIXX-23" target="40Z0YA3f_dxGeV-_oIXX-44" edge="1">
          <mxGeometry relative="1" as="geometry">
            <mxPoint x="410" y="1040" as="targetPoint" />
          </mxGeometry>
        </mxCell>
        <mxCell id="40Z0YA3f_dxGeV-_oIXX-23" value="" style="rounded=0;whiteSpace=wrap;html=1;shadow=0;glass=1;sketch=1;" parent="40Z0YA3f_dxGeV-_oIXX-1" vertex="1">
          <mxGeometry x="440" y="640" width="280" height="40" as="geometry" />
        </mxCell>
        <mxCell id="40Z0YA3f_dxGeV-_oIXX-39" style="edgeStyle=orthogonalEdgeStyle;rounded=0;orthogonalLoop=1;jettySize=auto;html=1;exitX=0.5;exitY=1;exitDx=0;exitDy=0;entryX=0.5;entryY=0;entryDx=0;entryDy=0;" parent="40Z0YA3f_dxGeV-_oIXX-1" source="40Z0YA3f_dxGeV-_oIXX-24" target="40Z0YA3f_dxGeV-_oIXX-33" edge="1">
          <mxGeometry relative="1" as="geometry" />
        </mxCell>
        <mxCell id="40Z0YA3f_dxGeV-_oIXX-48" style="edgeStyle=orthogonalEdgeStyle;rounded=0;orthogonalLoop=1;jettySize=auto;html=1;exitX=0;exitY=0.5;exitDx=0;exitDy=0;entryX=1;entryY=0.5;entryDx=0;entryDy=0;fillColor=#d5e8d4;strokeColor=#82b366;" parent="40Z0YA3f_dxGeV-_oIXX-1" source="40Z0YA3f_dxGeV-_oIXX-24" target="40Z0YA3f_dxGeV-_oIXX-44" edge="1">
          <mxGeometry relative="1" as="geometry" />
        </mxCell>
        <mxCell id="40Z0YA3f_dxGeV-_oIXX-24" value="" style="rounded=0;whiteSpace=wrap;html=1;shadow=0;glass=1;sketch=1;" parent="40Z0YA3f_dxGeV-_oIXX-1" vertex="1">
          <mxGeometry x="880" y="640" width="280" height="40" as="geometry" />
        </mxCell>
        <mxCell id="40Z0YA3f_dxGeV-_oIXX-35" style="edgeStyle=orthogonalEdgeStyle;rounded=0;orthogonalLoop=1;jettySize=auto;html=1;exitX=0.5;exitY=1;exitDx=0;exitDy=0;entryX=0.5;entryY=0;entryDx=0;entryDy=0;" parent="40Z0YA3f_dxGeV-_oIXX-1" source="40Z0YA3f_dxGeV-_oIXX-25" target="40Z0YA3f_dxGeV-_oIXX-32" edge="1">
          <mxGeometry relative="1" as="geometry" />
        </mxCell>
        <mxCell id="40Z0YA3f_dxGeV-_oIXX-46" style="edgeStyle=orthogonalEdgeStyle;rounded=0;orthogonalLoop=1;jettySize=auto;html=1;exitX=1;exitY=0.5;exitDx=0;exitDy=0;entryX=0;entryY=0.5;entryDx=0;entryDy=0;fillColor=#d5e8d4;strokeColor=#82b366;" parent="40Z0YA3f_dxGeV-_oIXX-1" source="40Z0YA3f_dxGeV-_oIXX-25" target="40Z0YA3f_dxGeV-_oIXX-44" edge="1">
          <mxGeometry relative="1" as="geometry">
            <mxPoint x="360" y="1064" as="targetPoint" />
          </mxGeometry>
        </mxCell>
        <mxCell id="40Z0YA3f_dxGeV-_oIXX-25" value="" style="rounded=0;whiteSpace=wrap;html=1;shadow=0;glass=1;sketch=1;" parent="40Z0YA3f_dxGeV-_oIXX-1" vertex="1">
          <mxGeometry x="40" y="640" width="280" height="40" as="geometry" />
        </mxCell>
        <mxCell id="40Z0YA3f_dxGeV-_oIXX-26" value="Gebruiker is een klant en word zijn/haar dashboard gestuurd." style="text;html=1;strokeColor=none;fillColor=none;align=center;verticalAlign=middle;whiteSpace=wrap;rounded=0;shadow=0;glass=0;sketch=1;" parent="40Z0YA3f_dxGeV-_oIXX-1" vertex="1">
          <mxGeometry x="50" y="650" width="260" height="20" as="geometry" />
        </mxCell>
        <mxCell id="40Z0YA3f_dxGeV-_oIXX-27" value="Gebruiker is een productie medewerker en word naar de planning gestuurd." style="text;html=1;strokeColor=none;fillColor=none;align=center;verticalAlign=middle;whiteSpace=wrap;rounded=0;shadow=0;glass=0;sketch=1;" parent="40Z0YA3f_dxGeV-_oIXX-1" vertex="1">
          <mxGeometry x="890" y="650" width="260" height="20" as="geometry" />
        </mxCell>
        <mxCell id="40Z0YA3f_dxGeV-_oIXX-28" value="Gebruiker is een administrator en word naar het admin dashboard gestuurd.&amp;nbsp;" style="text;html=1;strokeColor=none;fillColor=none;align=center;verticalAlign=middle;whiteSpace=wrap;rounded=0;shadow=0;glass=0;sketch=1;" parent="40Z0YA3f_dxGeV-_oIXX-1" vertex="1">
          <mxGeometry x="450" y="650" width="260" height="20" as="geometry" />
        </mxCell>
        <mxCell id="40Z0YA3f_dxGeV-_oIXX-37" style="edgeStyle=orthogonalEdgeStyle;rounded=0;orthogonalLoop=1;jettySize=auto;html=1;exitX=0.5;exitY=1;exitDx=0;exitDy=0;entryX=0;entryY=0.5;entryDx=0;entryDy=0;fillColor=#ffe6cc;strokeColor=#d79b00;" parent="40Z0YA3f_dxGeV-_oIXX-1" source="40Z0YA3f_dxGeV-_oIXX-32" target="40Z0YA3f_dxGeV-_oIXX-36" edge="1">
          <mxGeometry relative="1" as="geometry" />
        </mxCell>
        <mxCell id="40Z0YA3f_dxGeV-_oIXX-32" value="" style="rounded=0;whiteSpace=wrap;html=1;shadow=0;glass=1;sketch=1;" parent="40Z0YA3f_dxGeV-_oIXX-1" vertex="1">
          <mxGeometry x="40" y="760" width="280" height="40" as="geometry" />
        </mxCell>
        <mxCell id="40Z0YA3f_dxGeV-_oIXX-38" style="edgeStyle=orthogonalEdgeStyle;rounded=0;orthogonalLoop=1;jettySize=auto;html=1;exitX=0.5;exitY=1;exitDx=0;exitDy=0;entryX=1;entryY=0.5;entryDx=0;entryDy=0;fillColor=#ffe6cc;strokeColor=#d79b00;" parent="40Z0YA3f_dxGeV-_oIXX-1" source="40Z0YA3f_dxGeV-_oIXX-33" target="40Z0YA3f_dxGeV-_oIXX-36" edge="1">
          <mxGeometry relative="1" as="geometry" />
        </mxCell>
        <mxCell id="40Z0YA3f_dxGeV-_oIXX-33" value="" style="rounded=0;whiteSpace=wrap;html=1;shadow=0;glass=1;sketch=1;" parent="40Z0YA3f_dxGeV-_oIXX-1" vertex="1">
          <mxGeometry x="880" y="760" width="280" height="40" as="geometry" />
        </mxCell>
        <mxCell id="40Z0YA3f_dxGeV-_oIXX-34" value="Gebruiker voert een handeling uit waar hij/zij geen geschikte rol voor heeft." style="text;html=1;strokeColor=none;fillColor=none;align=center;verticalAlign=middle;whiteSpace=wrap;rounded=0;shadow=0;glass=0;sketch=1;" parent="40Z0YA3f_dxGeV-_oIXX-1" vertex="1">
          <mxGeometry x="50" y="770" width="260" height="20" as="geometry" />
        </mxCell>
        <mxCell id="40Z0YA3f_dxGeV-_oIXX-42" style="edgeStyle=orthogonalEdgeStyle;rounded=0;orthogonalLoop=1;jettySize=auto;html=1;exitX=1;exitY=1;exitDx=0;exitDy=0;entryX=1;entryY=0.5;entryDx=0;entryDy=0;fillColor=#d5e8d4;strokeColor=#82b366;" parent="40Z0YA3f_dxGeV-_oIXX-1" source="40Z0YA3f_dxGeV-_oIXX-36" target="40Z0YA3f_dxGeV-_oIXX-24" edge="1">
          <mxGeometry relative="1" as="geometry" />
        </mxCell>
        <mxCell id="40Z0YA3f_dxGeV-_oIXX-43" style="edgeStyle=orthogonalEdgeStyle;rounded=0;orthogonalLoop=1;jettySize=auto;html=1;exitX=0;exitY=1;exitDx=0;exitDy=0;entryX=0;entryY=0.5;entryDx=0;entryDy=0;fillColor=#d5e8d4;strokeColor=#82b366;" parent="40Z0YA3f_dxGeV-_oIXX-1" source="40Z0YA3f_dxGeV-_oIXX-36" target="40Z0YA3f_dxGeV-_oIXX-25" edge="1">
          <mxGeometry relative="1" as="geometry" />
        </mxCell>
        <mxCell id="40Z0YA3f_dxGeV-_oIXX-36" value="" style="rounded=0;whiteSpace=wrap;html=1;shadow=0;glass=1;sketch=1;" parent="40Z0YA3f_dxGeV-_oIXX-1" vertex="1">
          <mxGeometry x="460" y="880" width="280" height="40" as="geometry" />
        </mxCell>
        <mxCell id="40Z0YA3f_dxGeV-_oIXX-40" value="Gebruiker voert een handeling uit waar hij/zij geen geschikte rol voor heeft." style="text;html=1;strokeColor=none;fillColor=none;align=center;verticalAlign=middle;whiteSpace=wrap;rounded=0;shadow=0;glass=0;sketch=1;" parent="40Z0YA3f_dxGeV-_oIXX-1" vertex="1">
          <mxGeometry x="890" y="770" width="260" height="20" as="geometry" />
        </mxCell>
        <mxCell id="40Z0YA3f_dxGeV-_oIXX-41" value="Gebruiker komt op een 404 geen toegang pagina met een link terug naar het startscherm." style="text;html=1;strokeColor=none;fillColor=none;align=center;verticalAlign=middle;whiteSpace=wrap;rounded=0;shadow=0;glass=0;sketch=1;" parent="40Z0YA3f_dxGeV-_oIXX-1" vertex="1">
          <mxGeometry x="470" y="890" width="260" height="20" as="geometry" />
        </mxCell>
        <mxCell id="40Z0YA3f_dxGeV-_oIXX-49" style="edgeStyle=orthogonalEdgeStyle;rounded=0;orthogonalLoop=1;jettySize=auto;html=1;exitX=0.5;exitY=1;exitDx=0;exitDy=0;entryX=1;entryY=0.5;entryDx=0;entryDy=0;fillColor=#f8cecc;strokeColor=#b85450;" parent="40Z0YA3f_dxGeV-_oIXX-1" source="40Z0YA3f_dxGeV-_oIXX-44" target="40Z0YA3f_dxGeV-_oIXX-2" edge="1">
          <mxGeometry relative="1" as="geometry">
            <mxPoint x="1140" y="180" as="targetPoint" />
          </mxGeometry>
        </mxCell>
        <mxCell id="40Z0YA3f_dxGeV-_oIXX-44" value="" style="rounded=0;whiteSpace=wrap;html=1;shadow=0;glass=1;sketch=1;" parent="40Z0YA3f_dxGeV-_oIXX-1" vertex="1">
          <mxGeometry x="440" y="1040" width="280" height="40" as="geometry" />
        </mxCell>
        <mxCell id="40Z0YA3f_dxGeV-_oIXX-45" value="Gebruiker logt uit voor zijn/haar sessie.&amp;nbsp;" style="text;html=1;strokeColor=none;fillColor=none;align=center;verticalAlign=middle;whiteSpace=wrap;rounded=0;shadow=0;glass=0;sketch=1;" parent="40Z0YA3f_dxGeV-_oIXX-1" vertex="1">
          <mxGeometry x="450" y="1050" width="260" height="20" as="geometry" />
        </mxCell>
      </root>
    </mxGraphModel>
  </diagram>
  <diagram id="7Zf1xriT8iZSIeAcXd0H" name="Klant Login">
    <mxGraphModel dx="2066" dy="1153" grid="1" gridSize="10" guides="1" tooltips="1" connect="1" arrows="1" fold="1" page="1" pageScale="1" pageWidth="1200" pageHeight="1600" math="0" shadow="0">
      <root>
        <mxCell id="4HYCkez6cAnju-H6sk3c-0" />
        <mxCell id="4HYCkez6cAnju-H6sk3c-1" parent="4HYCkez6cAnju-H6sk3c-0" />
        <mxCell id="uYNr9vRNprHvUgnE9S33-3" style="edgeStyle=orthogonalEdgeStyle;rounded=0;orthogonalLoop=1;jettySize=auto;html=1;exitX=0.25;exitY=1;exitDx=0;exitDy=0;entryX=0.5;entryY=0;entryDx=0;entryDy=0;" parent="4HYCkez6cAnju-H6sk3c-1" source="SMEXIDe-SgFKRkrbWWkX-0" target="0-gRrT6_gDo_320jF0dN-0" edge="1">
          <mxGeometry relative="1" as="geometry" />
        </mxCell>
        <mxCell id="W1rUHc7RG8W78ZzRbL0p-0" style="edgeStyle=orthogonalEdgeStyle;rounded=0;orthogonalLoop=1;jettySize=auto;html=1;exitX=0.5;exitY=1;exitDx=0;exitDy=0;entryX=0;entryY=0.5;entryDx=0;entryDy=0;" parent="4HYCkez6cAnju-H6sk3c-1" source="SMEXIDe-SgFKRkrbWWkX-0" target="0-gRrT6_gDo_320jF0dN-1" edge="1">
          <mxGeometry relative="1" as="geometry">
            <Array as="points">
              <mxPoint x="600" y="480" />
            </Array>
          </mxGeometry>
        </mxCell>
        <mxCell id="SMEXIDe-SgFKRkrbWWkX-0" value="" style="rounded=0;whiteSpace=wrap;html=1;shadow=0;glass=1;sketch=1;" parent="4HYCkez6cAnju-H6sk3c-1" vertex="1">
          <mxGeometry x="360" y="40" width="480" height="240" as="geometry" />
        </mxCell>
        <mxCell id="cZxCmrV1irYvqPwk2-5y-1" style="edgeStyle=orthogonalEdgeStyle;rounded=0;orthogonalLoop=1;jettySize=auto;html=1;entryX=0;entryY=0.5;entryDx=0;entryDy=0;" parent="4HYCkez6cAnju-H6sk3c-1" source="SjKfiRPIdmPHDRSA0BzE-0" target="uYNr9vRNprHvUgnE9S33-0" edge="1">
          <mxGeometry relative="1" as="geometry" />
        </mxCell>
        <mxCell id="cZxCmrV1irYvqPwk2-5y-2" style="edgeStyle=orthogonalEdgeStyle;rounded=0;orthogonalLoop=1;jettySize=auto;html=1;entryX=0;entryY=0.5;entryDx=0;entryDy=0;" parent="4HYCkez6cAnju-H6sk3c-1" source="SjKfiRPIdmPHDRSA0BzE-0" target="0-gRrT6_gDo_320jF0dN-2" edge="1">
          <mxGeometry relative="1" as="geometry" />
        </mxCell>
        <mxCell id="zZTFDa8PrIeHwWcY4rix-0" style="edgeStyle=orthogonalEdgeStyle;rounded=0;orthogonalLoop=1;jettySize=auto;html=1;exitX=0.5;exitY=1;exitDx=0;exitDy=0;" edge="1" parent="4HYCkez6cAnju-H6sk3c-1" source="SjKfiRPIdmPHDRSA0BzE-0">
          <mxGeometry relative="1" as="geometry">
            <mxPoint x="600" y="290" as="targetPoint" />
          </mxGeometry>
        </mxCell>
        <mxCell id="SjKfiRPIdmPHDRSA0BzE-0" value="&lt;h1&gt;Klant Dashboard&lt;/h1&gt;&lt;p&gt;Na het inloggen komt de klant op een pagina terecht die alleen voor de klant zichtbaar is.&lt;/p&gt;&lt;p&gt;Op deze pagina ziet de klant een overzicht van alle bedrijfs en persoonsgegevens.&lt;/p&gt;&lt;p&gt;Tevens ziet de klant hier een verkapt overzicht van opdrachten die klaar zijn en ingepland staan.&lt;/p&gt;&lt;p&gt;(Optie) kan er op deze pagina een verwachte levertijd worden aangegeven&amp;nbsp; bijv:&lt;br&gt;Huidige levertijd is +/- 4 weken.&amp;nbsp;&lt;/p&gt;" style="text;html=1;strokeColor=none;fillColor=none;spacing=5;spacingTop=-20;whiteSpace=wrap;overflow=hidden;rounded=0;" parent="4HYCkez6cAnju-H6sk3c-1" vertex="1">
          <mxGeometry x="380" y="60" width="440" height="210" as="geometry" />
        </mxCell>
        <mxCell id="0-gRrT6_gDo_320jF0dN-0" value="" style="rounded=0;whiteSpace=wrap;html=1;shadow=0;glass=1;sketch=1;" parent="4HYCkez6cAnju-H6sk3c-1" vertex="1">
          <mxGeometry x="40" y="360" width="480" height="500" as="geometry" />
        </mxCell>
        <mxCell id="0-gRrT6_gDo_320jF0dN-1" value="" style="rounded=0;whiteSpace=wrap;html=1;shadow=0;glass=1;sketch=1;" parent="4HYCkez6cAnju-H6sk3c-1" vertex="1">
          <mxGeometry x="680" y="360" width="480" height="240" as="geometry" />
        </mxCell>
        <mxCell id="0-gRrT6_gDo_320jF0dN-2" value="" style="rounded=0;whiteSpace=wrap;html=1;shadow=0;glass=1;sketch=1;" parent="4HYCkez6cAnju-H6sk3c-1" vertex="1">
          <mxGeometry x="680" y="920" width="480" height="240" as="geometry" />
        </mxCell>
        <mxCell id="uYNr9vRNprHvUgnE9S33-0" value="" style="rounded=0;whiteSpace=wrap;html=1;shadow=0;glass=1;sketch=1;" parent="4HYCkez6cAnju-H6sk3c-1" vertex="1">
          <mxGeometry x="680" y="640" width="480" height="240" as="geometry" />
        </mxCell>
        <mxCell id="uYNr9vRNprHvUgnE9S33-1" value="&lt;h1&gt;Klant Dashboard&lt;/h1&gt;&lt;p&gt;Zichtbare Persoonsgegevens:&lt;/p&gt;&lt;p&gt;&lt;/p&gt;&lt;ol&gt;&lt;li&gt;Naam Lang. (Bedrijfsnaam)&lt;/li&gt;&lt;li&gt;Contactpersoon.&lt;/li&gt;&lt;li&gt;Straatnaam.Postcode.&lt;/li&gt;&lt;li&gt;Plaats.&lt;/li&gt;&lt;li&gt;Land.&lt;/li&gt;&lt;li&gt;Telefoon Vast.&lt;/li&gt;&lt;li&gt;Telefoon Mobiel.&lt;/li&gt;&lt;li&gt;Fax? (optie)&lt;/li&gt;&lt;li&gt;E-Mail.&lt;/li&gt;&lt;li&gt;Gewenste Leverdag. (Alleen zichtbaar voor klanten die dit aangeven)&lt;/li&gt;&lt;/ol&gt;&lt;div&gt;Huidige Levertijd:&lt;/div&gt;&lt;div&gt;&lt;ol&gt;&lt;li&gt;Een huidige levertijd aangegeven als +/- X aantal weken.&lt;/li&gt;&lt;/ol&gt;&lt;div&gt;Overzicht:&lt;/div&gt;&lt;/div&gt;&lt;div&gt;&lt;ol&gt;&lt;li&gt;Overzicht opdrachten die op het moment van inloggen klaar liggen. (Referentie, opdrachtnummer, weeknummer) opdracht is klikbaar voor uitgebreide&amp;nbsp; informatie.&lt;/li&gt;&lt;li&gt;Overzicht opdrachten die staan gepland op het moment van inloggen. (Referentie, opdrachtnummer, weeknummer) met disclaimer dat de verwachte datum kan veranderen door omstandigheden.&lt;/li&gt;&lt;/ol&gt;&lt;div&gt;Button:&lt;/div&gt;&lt;/div&gt;&lt;div&gt;&lt;ol&gt;&lt;li&gt;Een button die het mogelijk maakt om een aanvraag te doen om persoonsgegevens te wijzigen via email.&lt;/li&gt;&lt;/ol&gt;&lt;/div&gt;&lt;p&gt;&lt;/p&gt;" style="text;html=1;strokeColor=none;fillColor=none;spacing=5;spacingTop=-20;whiteSpace=wrap;overflow=hidden;rounded=0;" parent="4HYCkez6cAnju-H6sk3c-1" vertex="1">
          <mxGeometry x="60" y="380" width="440" height="460" as="geometry" />
        </mxCell>
        <mxCell id="uYNr9vRNprHvUgnE9S33-4" value="&lt;h1&gt;Klant Lopende Opdrachten&lt;/h1&gt;&lt;p&gt;Zichtbare gegevens:&lt;/p&gt;&lt;p&gt;&lt;/p&gt;&lt;ol&gt;&lt;li&gt;Opdrachtnummer.&lt;/li&gt;&lt;li&gt;Referentie.&lt;/li&gt;&lt;li&gt;Verwachte levertijd.&lt;/li&gt;&lt;li&gt;Soort product.&lt;/li&gt;&lt;li&gt;Aantal van het product.&lt;/li&gt;&lt;li&gt;Status. (in productie, geleverd)&lt;/li&gt;&lt;/ol&gt;&lt;div&gt;Deze tabel heeft een filter en sorteer functie om het zoeken naar een opdracht te verfijnen.&lt;/div&gt;&lt;p&gt;&lt;/p&gt;" style="text;html=1;strokeColor=none;fillColor=none;spacing=5;spacingTop=-20;whiteSpace=wrap;overflow=hidden;rounded=0;" parent="4HYCkez6cAnju-H6sk3c-1" vertex="1">
          <mxGeometry x="700" y="375" width="440" height="210" as="geometry" />
        </mxCell>
        <mxCell id="W1rUHc7RG8W78ZzRbL0p-1" value="&lt;h1&gt;Klant Opdrachten Klaar Niet Afgehaald&lt;/h1&gt;&lt;p&gt;Zichtbare gegevens:&lt;/p&gt;&lt;p&gt;&lt;/p&gt;&lt;ol&gt;&lt;li&gt;Opdrachtnummer.&lt;/li&gt;&lt;li&gt;Referentie.&lt;/li&gt;&lt;li&gt;Soort product.&lt;/li&gt;&lt;li&gt;Aantal van het product.&lt;/li&gt;&lt;li&gt;Status. (Klaar)&lt;/li&gt;&lt;/ol&gt;&lt;div&gt;Deze tabel heeft een filter en sorteer functie om het zoeken naar een opdracht te verfijnen.&lt;/div&gt;&lt;p&gt;&lt;/p&gt;" style="text;html=1;strokeColor=none;fillColor=none;spacing=5;spacingTop=-20;whiteSpace=wrap;overflow=hidden;rounded=0;" parent="4HYCkez6cAnju-H6sk3c-1" vertex="1">
          <mxGeometry x="700" y="655" width="460" height="210" as="geometry" />
        </mxCell>
        <mxCell id="cZxCmrV1irYvqPwk2-5y-0" value="&lt;h1&gt;Klant Opdrachten Klaar Afgehaald&lt;/h1&gt;&lt;p&gt;Zichtbare gegevens:&lt;/p&gt;&lt;p&gt;&lt;/p&gt;&lt;ol&gt;&lt;li&gt;Opdrachtnummer.&lt;/li&gt;&lt;li&gt;Referentie.&lt;/li&gt;&lt;li&gt;Soort product.&lt;/li&gt;&lt;li&gt;Aantal van het product.&lt;/li&gt;&lt;li&gt;Status. (geleverd)&lt;/li&gt;&lt;/ol&gt;&lt;div&gt;Deze tabel heeft een filter en sorteer functie om het zoeken naar een opdracht te verfijnen.&lt;/div&gt;&lt;p&gt;&lt;/p&gt;" style="text;html=1;strokeColor=none;fillColor=none;spacing=5;spacingTop=-20;whiteSpace=wrap;overflow=hidden;rounded=0;" parent="4HYCkez6cAnju-H6sk3c-1" vertex="1">
          <mxGeometry x="690" y="935" width="460" height="210" as="geometry" />
        </mxCell>
      </root>
    </mxGraphModel>
  </diagram>
  <diagram id="fLW3jGcGNmhAp41Lrl2V" name="Werkplaats Login">
    <mxGraphModel dx="2066" dy="1153" grid="1" gridSize="10" guides="1" tooltips="1" connect="1" arrows="1" fold="1" page="1" pageScale="1" pageWidth="1200" pageHeight="1600" math="0" shadow="0">
      <root>
        <mxCell id="_cOSrpNItAO7Ad6m3Izv-0" />
        <mxCell id="_cOSrpNItAO7Ad6m3Izv-1" parent="_cOSrpNItAO7Ad6m3Izv-0" />
        <mxCell id="1bT8wtpuJd08rkUbfY5q-2" style="edgeStyle=orthogonalEdgeStyle;rounded=0;orthogonalLoop=1;jettySize=auto;html=1;exitX=0.25;exitY=1;exitDx=0;exitDy=0;entryX=0.5;entryY=0;entryDx=0;entryDy=0;" parent="_cOSrpNItAO7Ad6m3Izv-1" source="jGVdU2Ma4gjxF0kne9ZP-0" target="1bT8wtpuJd08rkUbfY5q-0" edge="1">
          <mxGeometry relative="1" as="geometry" />
        </mxCell>
        <mxCell id="1bT8wtpuJd08rkUbfY5q-7" style="edgeStyle=orthogonalEdgeStyle;rounded=0;orthogonalLoop=1;jettySize=auto;html=1;exitX=0.75;exitY=1;exitDx=0;exitDy=0;" parent="_cOSrpNItAO7Ad6m3Izv-1" source="jGVdU2Ma4gjxF0kne9ZP-0" target="1bT8wtpuJd08rkUbfY5q-6" edge="1">
          <mxGeometry relative="1" as="geometry" />
        </mxCell>
        <mxCell id="jGVdU2Ma4gjxF0kne9ZP-0" value="" style="rounded=0;whiteSpace=wrap;html=1;shadow=0;glass=1;sketch=1;" parent="_cOSrpNItAO7Ad6m3Izv-1" vertex="1">
          <mxGeometry x="360" y="40" width="480" height="240" as="geometry" />
        </mxCell>
        <mxCell id="jGVdU2Ma4gjxF0kne9ZP-1" value="&lt;h1&gt;Werkplaats Login&lt;/h1&gt;&lt;p&gt;Na het inloggen komt de werknemer op deze pagina terecht.&lt;/p&gt;&lt;p&gt;Op deze pagina zullen een aantal grafieken zichtbaar zijn, onder anderen&amp;nbsp; een grafiek die per week aangeeft hoeveel opdrachten er staan ingepland en een grafiek die per week aangeeft hoeveel producten.&lt;/p&gt;&lt;p&gt;Tevens zal hier een tabel staan met opdrachten die een opmerking hebben en een kalender waarop vakantiedagen zichtbaar zijn.&lt;/p&gt;" style="text;html=1;strokeColor=none;fillColor=none;spacing=5;spacingTop=-20;whiteSpace=wrap;overflow=hidden;rounded=0;" parent="_cOSrpNItAO7Ad6m3Izv-1" vertex="1">
          <mxGeometry x="380" y="60" width="440" height="200" as="geometry" />
        </mxCell>
        <mxCell id="1bT8wtpuJd08rkUbfY5q-4" style="edgeStyle=orthogonalEdgeStyle;rounded=0;orthogonalLoop=1;jettySize=auto;html=1;entryX=0;entryY=0.5;entryDx=0;entryDy=0;" parent="_cOSrpNItAO7Ad6m3Izv-1" source="1bT8wtpuJd08rkUbfY5q-0" target="1bT8wtpuJd08rkUbfY5q-3" edge="1">
          <mxGeometry relative="1" as="geometry" />
        </mxCell>
        <mxCell id="1bT8wtpuJd08rkUbfY5q-0" value="" style="rounded=0;whiteSpace=wrap;html=1;shadow=0;glass=1;sketch=1;" parent="_cOSrpNItAO7Ad6m3Izv-1" vertex="1">
          <mxGeometry x="40" y="320" width="480" height="560" as="geometry" />
        </mxCell>
        <mxCell id="1bT8wtpuJd08rkUbfY5q-1" value="&lt;h1&gt;Werkplaats Planning&lt;/h1&gt;&lt;p&gt;Deze pagina bevat een tabel met opdrachten, tevens kunnen de kolommen worden aangepast (toevoegen/verwijderen) en dit zal in het apparaat zijn geheugen worden opgeslagen totdat dit wordt aangepast.&lt;/p&gt;&lt;p&gt;Dit scherm zal ook een dropdown hebben voor het jaar en de week te selecteren met de daarbij behorende terug en volgende buttons.&lt;/p&gt;&lt;p&gt;Bij het bereiken van week 52 (soms week 53) zal de planning automatisch 1 jaar vooruit gaan of bij het bereiken van week 1 1 jaar terug.&lt;/p&gt;&lt;p&gt;Kolommen in de tabel:&lt;/p&gt;&lt;p&gt;&lt;/p&gt;&lt;ol&gt;&lt;li&gt;Opdrachtnummer.&lt;/li&gt;&lt;li&gt;Klant naam kort.&lt;/li&gt;&lt;li&gt;Referentie.&lt;/li&gt;&lt;li&gt;Aantal producten.&lt;/li&gt;&lt;li&gt;Soort product.&lt;/li&gt;&lt;li&gt;Opmerking.&lt;/li&gt;&lt;li&gt;Leverdatum (Jaar).&lt;/li&gt;&lt;li&gt;Leverdatum (Week).&lt;/li&gt;&lt;li&gt;Leverdatum (Dag).&lt;/li&gt;&lt;li&gt;Status pantser.&lt;/li&gt;&lt;li&gt;Status kast.&lt;/li&gt;&lt;li&gt;Status ingetrokken.&lt;/li&gt;&lt;li&gt;Status geleiders.&lt;/li&gt;&lt;li&gt;Status bediening.&lt;/li&gt;&lt;li&gt;Status gereed. (Automatisch wanneer alle andere statussen zijn aangevinkt).&lt;/li&gt;&lt;li&gt;Status afgehaald.&lt;/li&gt;&lt;li&gt;Print knop. (Opdrachtnummer, Klant naam lang, Referentie).&lt;/li&gt;&lt;/ol&gt;&lt;div&gt;Bij het klikken op de klant naam zal een modal verschijnen met de contactgegevens van de klant.&lt;/div&gt;&lt;p&gt;&lt;/p&gt;" style="text;html=1;strokeColor=none;fillColor=none;spacing=5;spacingTop=-20;whiteSpace=wrap;overflow=hidden;rounded=0;" parent="_cOSrpNItAO7Ad6m3Izv-1" vertex="1">
          <mxGeometry x="60" y="340" width="440" height="520" as="geometry" />
        </mxCell>
        <mxCell id="1bT8wtpuJd08rkUbfY5q-3" value="" style="rounded=0;whiteSpace=wrap;html=1;shadow=0;glass=1;sketch=1;" parent="_cOSrpNItAO7Ad6m3Izv-1" vertex="1">
          <mxGeometry x="360" y="920" width="480" height="240" as="geometry" />
        </mxCell>
        <mxCell id="1bT8wtpuJd08rkUbfY5q-5" value="&lt;h1&gt;Werkplaats Klant Gegevens&lt;/h1&gt;&lt;p&gt;In de modal die verschijnt na het klikken op een klant naam zal de volgende informatie beschikbaar zijn:&lt;/p&gt;&lt;p&gt;&lt;ol&gt;&lt;li&gt;Contactpersoon.&lt;/li&gt;&lt;li&gt;Bedrijfsnaam.&lt;/li&gt;&lt;li&gt;Telefoon Vast.&lt;/li&gt;&lt;li&gt;Telefoon Mobiel.&lt;/li&gt;&lt;/ol&gt;&lt;/p&gt;" style="text;html=1;strokeColor=none;fillColor=none;spacing=5;spacingTop=-20;whiteSpace=wrap;overflow=hidden;rounded=0;" parent="_cOSrpNItAO7Ad6m3Izv-1" vertex="1">
          <mxGeometry x="380" y="940" width="440" height="200" as="geometry" />
        </mxCell>
        <mxCell id="1bT8wtpuJd08rkUbfY5q-6" value="" style="rounded=0;whiteSpace=wrap;html=1;shadow=0;glass=1;sketch=1;" parent="_cOSrpNItAO7Ad6m3Izv-1" vertex="1">
          <mxGeometry x="680" y="320" width="480" height="240" as="geometry" />
        </mxCell>
        <mxCell id="1bT8wtpuJd08rkUbfY5q-8" value="&lt;h1&gt;Werkplaats Overzicht Opdrachten Klaar&lt;/h1&gt;&lt;p&gt;Dit scherm zal alleen opdrachten laten zien die klaar zijn, deze kan dan met behulp van een filter selecteren of de opdrachten zijn afgehaald of nog geleverd moeten worden.&lt;/p&gt;&lt;p&gt;Ook hier kunnen kolommen zelf worden toegevoegd / verwijderd naar wens en zal hetzelfde systeem gebruikt worden om de week en het jaar te selecteren&lt;/p&gt;" style="text;html=1;strokeColor=none;fillColor=none;spacing=5;spacingTop=-20;whiteSpace=wrap;overflow=hidden;rounded=0;" parent="_cOSrpNItAO7Ad6m3Izv-1" vertex="1">
          <mxGeometry x="700" y="340" width="440" height="200" as="geometry" />
        </mxCell>
      </root>
    </mxGraphModel>
  </diagram>
  <diagram id="dRCWkC2shkWS--3EZ0jl" name="Kantoor Login">
    <mxGraphModel dx="2066" dy="1153" grid="1" gridSize="10" guides="1" tooltips="1" connect="1" arrows="1" fold="1" page="1" pageScale="1" pageWidth="1200" pageHeight="1600" math="0" shadow="0">
      <root>
        <mxCell id="6KTKTbIAqn1qIDB97dUU-0" />
        <mxCell id="6KTKTbIAqn1qIDB97dUU-1" parent="6KTKTbIAqn1qIDB97dUU-0" />
        <mxCell id="75HfYSTcQHPpbCVEJxgA-3" style="edgeStyle=orthogonalEdgeStyle;rounded=0;orthogonalLoop=1;jettySize=auto;html=1;exitX=0.25;exitY=1;exitDx=0;exitDy=0;entryX=0.5;entryY=0;entryDx=0;entryDy=0;" edge="1" parent="6KTKTbIAqn1qIDB97dUU-1" source="75HfYSTcQHPpbCVEJxgA-0" target="75HfYSTcQHPpbCVEJxgA-2">
          <mxGeometry relative="1" as="geometry" />
        </mxCell>
        <mxCell id="75HfYSTcQHPpbCVEJxgA-9" style="edgeStyle=orthogonalEdgeStyle;rounded=0;orthogonalLoop=1;jettySize=auto;html=1;exitX=0.25;exitY=1;exitDx=0;exitDy=0;entryX=1;entryY=0.5;entryDx=0;entryDy=0;" edge="1" parent="6KTKTbIAqn1qIDB97dUU-1" source="75HfYSTcQHPpbCVEJxgA-0" target="75HfYSTcQHPpbCVEJxgA-8">
          <mxGeometry relative="1" as="geometry">
            <Array as="points">
              <mxPoint x="540" y="280" />
              <mxPoint x="540" y="1020" />
            </Array>
          </mxGeometry>
        </mxCell>
        <mxCell id="75HfYSTcQHPpbCVEJxgA-16" style="edgeStyle=orthogonalEdgeStyle;rounded=0;orthogonalLoop=1;jettySize=auto;html=1;exitX=0.25;exitY=1;exitDx=0;exitDy=0;entryX=1;entryY=0.5;entryDx=0;entryDy=0;" edge="1" parent="6KTKTbIAqn1qIDB97dUU-1" source="75HfYSTcQHPpbCVEJxgA-0" target="75HfYSTcQHPpbCVEJxgA-15">
          <mxGeometry relative="1" as="geometry">
            <Array as="points">
              <mxPoint x="540" y="280" />
              <mxPoint x="540" y="1600" />
            </Array>
          </mxGeometry>
        </mxCell>
        <mxCell id="75HfYSTcQHPpbCVEJxgA-19" style="edgeStyle=orthogonalEdgeStyle;rounded=0;orthogonalLoop=1;jettySize=auto;html=1;exitX=0.25;exitY=1;exitDx=0;exitDy=0;entryX=1;entryY=0.525;entryDx=0;entryDy=0;entryPerimeter=0;" edge="1" parent="6KTKTbIAqn1qIDB97dUU-1" source="75HfYSTcQHPpbCVEJxgA-0" target="75HfYSTcQHPpbCVEJxgA-17">
          <mxGeometry relative="1" as="geometry">
            <Array as="points">
              <mxPoint x="540" y="280" />
              <mxPoint x="540" y="2050" />
            </Array>
          </mxGeometry>
        </mxCell>
        <mxCell id="75HfYSTcQHPpbCVEJxgA-23" style="edgeStyle=orthogonalEdgeStyle;rounded=0;orthogonalLoop=1;jettySize=auto;html=1;exitX=0.75;exitY=1;exitDx=0;exitDy=0;entryX=0.5;entryY=0;entryDx=0;entryDy=0;" edge="1" parent="6KTKTbIAqn1qIDB97dUU-1" source="75HfYSTcQHPpbCVEJxgA-0" target="75HfYSTcQHPpbCVEJxgA-20">
          <mxGeometry relative="1" as="geometry" />
        </mxCell>
        <mxCell id="75HfYSTcQHPpbCVEJxgA-0" value="" style="rounded=0;whiteSpace=wrap;html=1;shadow=0;glass=1;sketch=1;" vertex="1" parent="6KTKTbIAqn1qIDB97dUU-1">
          <mxGeometry x="360" y="40" width="480" height="240" as="geometry" />
        </mxCell>
        <mxCell id="75HfYSTcQHPpbCVEJxgA-1" value="&lt;h1&gt;Kantoor/PC Dashboard&lt;/h1&gt;&lt;p&gt;Na het inloggen als administrator komt de gebruiker op een dashboard terecht met daarop een grafiek die aangeeft hoeveel opdrachten er per week opstaan, tevens geeft deze grafiek ook aan hoeveel van die opdrachten al klaar zijn voor levering.&lt;/p&gt;&lt;p&gt;Dit dashboard zal ook de opdrachten laten zien die voor die week geleverd moeten worden gesorteerd op de leverdag.&lt;/p&gt;&lt;p&gt;Daarnaast laat dit dashboard een overzicht van opmerkingen zien samen met de bijhorende opdracht voor die week.&lt;/p&gt;" style="text;html=1;strokeColor=none;fillColor=none;spacing=5;spacingTop=-20;whiteSpace=wrap;overflow=hidden;rounded=0;" vertex="1" parent="6KTKTbIAqn1qIDB97dUU-1">
          <mxGeometry x="380" y="60" width="440" height="200" as="geometry" />
        </mxCell>
        <mxCell id="75HfYSTcQHPpbCVEJxgA-7" style="edgeStyle=orthogonalEdgeStyle;rounded=0;orthogonalLoop=1;jettySize=auto;html=1;exitX=0.5;exitY=1;exitDx=0;exitDy=0;entryX=0.5;entryY=0;entryDx=0;entryDy=0;" edge="1" parent="6KTKTbIAqn1qIDB97dUU-1" source="75HfYSTcQHPpbCVEJxgA-2" target="75HfYSTcQHPpbCVEJxgA-5">
          <mxGeometry relative="1" as="geometry" />
        </mxCell>
        <mxCell id="75HfYSTcQHPpbCVEJxgA-2" value="" style="rounded=0;whiteSpace=wrap;html=1;shadow=0;glass=1;sketch=1;" vertex="1" parent="6KTKTbIAqn1qIDB97dUU-1">
          <mxGeometry x="40" y="320" width="480" height="200" as="geometry" />
        </mxCell>
        <mxCell id="75HfYSTcQHPpbCVEJxgA-4" value="&lt;h1&gt;Kantoor/PC Klantenoverzicht&lt;/h1&gt;&lt;p&gt;Het klantenoverzicht is een tabel met daarin alle klanten in het systeem. Deze tabel kan gefilterd en gesorteerd worden.&lt;/p&gt;&lt;p&gt;Iedere rij in de tabel heeft een button om de informatie voor de klant in te zien, te bewerken of de klant te verwijderen.&lt;/p&gt;&lt;p&gt;Daarnaast zal boven aan de pagina een button zijn waarmee nieuwe klanten kunnen worden toegevoegd aan het systeem.&lt;/p&gt;" style="text;html=1;strokeColor=none;fillColor=none;spacing=5;spacingTop=-20;whiteSpace=wrap;overflow=hidden;rounded=0;" vertex="1" parent="6KTKTbIAqn1qIDB97dUU-1">
          <mxGeometry x="60" y="340" width="440" height="160" as="geometry" />
        </mxCell>
        <mxCell id="75HfYSTcQHPpbCVEJxgA-5" value="" style="rounded=0;whiteSpace=wrap;html=1;shadow=0;glass=1;sketch=1;" vertex="1" parent="6KTKTbIAqn1qIDB97dUU-1">
          <mxGeometry x="40" y="560" width="480" height="320" as="geometry" />
        </mxCell>
        <mxCell id="75HfYSTcQHPpbCVEJxgA-6" value="&lt;h1&gt;Kantoor/PC Klant Toevoegen&lt;/h1&gt;&lt;p&gt;Om een klant toe te voegen zijn de volgende gegevens nodig:&lt;/p&gt;&lt;p&gt;&lt;/p&gt;&lt;ol&gt;&lt;li&gt;UID (Unique Identifier wordt automatisch aangemaakt).&lt;/li&gt;&lt;li&gt;Klantnummer.&lt;/li&gt;&lt;li&gt;Klant naam kort. (Zichtbaar op planning)&lt;/li&gt;&lt;li&gt;Klant naam lang. (Zichtbaar voor klant)&lt;/li&gt;&lt;li&gt;Contactpersoon.&lt;/li&gt;&lt;li&gt;Straatnaam.&lt;/li&gt;&lt;li&gt;Postcode.&lt;/li&gt;&lt;li&gt;Plaats.&lt;/li&gt;&lt;li&gt;Land.&lt;/li&gt;&lt;li&gt;Telefoon vast.&lt;/li&gt;&lt;li&gt;Telefoon mobiel.&lt;/li&gt;&lt;li&gt;Email.&lt;/li&gt;&lt;li&gt;Leverdag. (Planning en kontoor dashboard)&lt;/li&gt;&lt;li&gt;Rol. (Klant)&lt;/li&gt;&lt;/ol&gt;&lt;p&gt;&lt;/p&gt;" style="text;html=1;strokeColor=none;fillColor=none;spacing=5;spacingTop=-20;whiteSpace=wrap;overflow=hidden;rounded=0;" vertex="1" parent="6KTKTbIAqn1qIDB97dUU-1">
          <mxGeometry x="60" y="580" width="440" height="280" as="geometry" />
        </mxCell>
        <mxCell id="75HfYSTcQHPpbCVEJxgA-13" style="edgeStyle=orthogonalEdgeStyle;rounded=0;orthogonalLoop=1;jettySize=auto;html=1;exitX=0.5;exitY=1;exitDx=0;exitDy=0;entryX=0.5;entryY=0;entryDx=0;entryDy=0;" edge="1" parent="6KTKTbIAqn1qIDB97dUU-1" source="75HfYSTcQHPpbCVEJxgA-8" target="75HfYSTcQHPpbCVEJxgA-11">
          <mxGeometry relative="1" as="geometry" />
        </mxCell>
        <mxCell id="75HfYSTcQHPpbCVEJxgA-8" value="" style="rounded=0;whiteSpace=wrap;html=1;shadow=0;glass=1;sketch=1;" vertex="1" parent="6KTKTbIAqn1qIDB97dUU-1">
          <mxGeometry x="40" y="920" width="480" height="200" as="geometry" />
        </mxCell>
        <mxCell id="75HfYSTcQHPpbCVEJxgA-10" value="&lt;h1&gt;Kantoor/PC Gebruikersoverzicht&lt;/h1&gt;&lt;p&gt;Gebruikers zijn de werknemers en admins in het systeem. De informatie van de gebruikers kan hier worden bewerkt of de gebruiker kan in zijn geheel worden verwijderd.&lt;/p&gt;&lt;p&gt;Hier zal ook een tabel zichtbaar zijn met daarin alle gebruikers en welke rol zij hebben.&amp;nbsp;&lt;/p&gt;" style="text;html=1;strokeColor=none;fillColor=none;spacing=5;spacingTop=-20;whiteSpace=wrap;overflow=hidden;rounded=0;" vertex="1" parent="6KTKTbIAqn1qIDB97dUU-1">
          <mxGeometry x="60" y="940" width="440" height="160" as="geometry" />
        </mxCell>
        <mxCell id="75HfYSTcQHPpbCVEJxgA-11" value="" style="rounded=0;whiteSpace=wrap;html=1;shadow=0;glass=1;sketch=1;" vertex="1" parent="6KTKTbIAqn1qIDB97dUU-1">
          <mxGeometry x="40" y="1160" width="480" height="200" as="geometry" />
        </mxCell>
        <mxCell id="75HfYSTcQHPpbCVEJxgA-12" value="&lt;h1&gt;Kantoor/PC Gebruikers Toevoegen&lt;/h1&gt;&lt;p&gt;Om een gebruiker toe te voegen zijn de volgende gegevens nodig:&lt;/p&gt;&lt;p&gt;&lt;/p&gt;&lt;ol&gt;&lt;li&gt;UID (Unique Identifier wordt automatisch aangemaakt).&lt;/li&gt;&lt;li&gt;Gebruikersnaam.&lt;/li&gt;&lt;li&gt;Gebruikers Email.&lt;/li&gt;&lt;li&gt;Rol. (Admin/Werknemer) gebruiker zal altijd als werknemer worden aangemaakt tenzij anders is aangegeven.&lt;/li&gt;&lt;/ol&gt;&lt;p&gt;&lt;/p&gt;" style="text;html=1;strokeColor=none;fillColor=none;spacing=5;spacingTop=-20;whiteSpace=wrap;overflow=hidden;rounded=0;" vertex="1" parent="6KTKTbIAqn1qIDB97dUU-1">
          <mxGeometry x="60" y="1180" width="440" height="160" as="geometry" />
        </mxCell>
        <mxCell id="75HfYSTcQHPpbCVEJxgA-15" value="" style="rounded=0;whiteSpace=wrap;html=1;shadow=0;glass=1;sketch=1;" vertex="1" parent="6KTKTbIAqn1qIDB97dUU-1">
          <mxGeometry x="40" y="1400" width="480" height="400" as="geometry" />
        </mxCell>
        <mxCell id="75HfYSTcQHPpbCVEJxgA-14" value="&lt;h1&gt;Kantoor/PC Soort Product Overzicht&lt;/h1&gt;&lt;p&gt;Een overzicht van het soort producten wat gemaakt wordt in de werkplaats.&lt;/p&gt;&lt;p&gt;Huidige opties:&lt;/p&gt;&lt;p&gt;&lt;/p&gt;&lt;ol&gt;&lt;li&gt;Pantsers.&lt;/li&gt;&lt;li&gt;Rolluik(en).&lt;/li&gt;&lt;li&gt;Screen(s).&lt;/li&gt;&lt;li&gt;Zipscreen(s).&lt;/li&gt;&lt;li&gt;Zonwering(en).&lt;/li&gt;&lt;li&gt;Hor(ren).&lt;/li&gt;&lt;li&gt;Rolpoort(en).&lt;/li&gt;&lt;li&gt;Onderdeel / Onderdelen.&lt;/li&gt;&lt;/ol&gt;&lt;div style=&quot;font-size: 24px&quot;&gt;&lt;b&gt;Kantoor/PC Soort Product Toevoegen en Bewerken&lt;/b&gt;&lt;/div&gt;&lt;div&gt;&lt;b&gt;&lt;br&gt;&lt;/b&gt;&lt;/div&gt;&lt;div&gt;hier kunnen nieuwe producten worden toegevoegd deze krijgen in de backend een nummer gebaseerd op het laatst toegevoegde product.&lt;/div&gt;&lt;div&gt;&lt;br&gt;&lt;/div&gt;&lt;div&gt;Tevens kan je hier de naam van het product veranderen of compleet verwijderen.&lt;/div&gt;&lt;div&gt;&lt;b&gt;&lt;br&gt;&lt;/b&gt;&lt;/div&gt;&lt;p&gt;&lt;/p&gt;" style="text;html=1;strokeColor=none;fillColor=none;spacing=5;spacingTop=-20;whiteSpace=wrap;overflow=hidden;rounded=0;" vertex="1" parent="6KTKTbIAqn1qIDB97dUU-1">
          <mxGeometry x="60" y="1420" width="440" height="360" as="geometry" />
        </mxCell>
        <mxCell id="75HfYSTcQHPpbCVEJxgA-17" value="" style="rounded=0;whiteSpace=wrap;html=1;shadow=0;glass=1;sketch=1;" vertex="1" parent="6KTKTbIAqn1qIDB97dUU-1">
          <mxGeometry x="40" y="1840" width="480" height="400" as="geometry" />
        </mxCell>
        <mxCell id="75HfYSTcQHPpbCVEJxgA-18" value="&lt;h1&gt;Kantoor/PC Vakantiedagen Overzicht&lt;/h1&gt;&lt;p&gt;Dit is een tabel met daarin iedere vakantie dag in het huidige jaar. Deze tabel kan aangepast worden op jaar en daarnaast gefilterd en gesorteerd.&lt;/p&gt;&lt;p&gt;&lt;br&gt;&lt;/p&gt;&lt;div style=&quot;font-size: 24px&quot;&gt;&lt;b&gt;Kantoor/PC Vakantiedagen Toevoegen en Bewerken&lt;/b&gt;&lt;/div&gt;&lt;div&gt;&lt;b&gt;&lt;br&gt;&lt;/b&gt;&lt;/div&gt;&lt;div&gt;Aangezien vakantiedagen niet altijd hetzelfde zijn kunnen er ieder jaar meerdere vakantiedagen worden toegevoegd.&lt;/div&gt;&lt;div&gt;&lt;br&gt;&lt;/div&gt;&lt;div&gt;Bij het toevoegen van een vakantiedag is de volgende informatie nodig:&lt;/div&gt;&lt;div&gt;&lt;ol&gt;&lt;li&gt;Jaar.&lt;/li&gt;&lt;li&gt;Week.&lt;/li&gt;&lt;li&gt;Dag.&lt;/li&gt;&lt;li&gt;Omschrijving. (Bouwvak, Carnaval, Kerst, Pasen, enz.)&lt;/li&gt;&lt;/ol&gt;&lt;div&gt;Natuurlijk kan er door omstandigheden iets veranderen en kunnen vakantiedagen worden verwijderd of aangepast.&lt;/div&gt;&lt;/div&gt;&lt;p&gt;&lt;/p&gt;" style="text;html=1;strokeColor=none;fillColor=none;spacing=5;spacingTop=-20;whiteSpace=wrap;overflow=hidden;rounded=0;" vertex="1" parent="6KTKTbIAqn1qIDB97dUU-1">
          <mxGeometry x="60" y="1860" width="440" height="360" as="geometry" />
        </mxCell>
        <mxCell id="75HfYSTcQHPpbCVEJxgA-24" style="edgeStyle=orthogonalEdgeStyle;rounded=0;orthogonalLoop=1;jettySize=auto;html=1;exitX=0.5;exitY=1;exitDx=0;exitDy=0;entryX=0.5;entryY=0;entryDx=0;entryDy=0;" edge="1" parent="6KTKTbIAqn1qIDB97dUU-1" source="75HfYSTcQHPpbCVEJxgA-20" target="75HfYSTcQHPpbCVEJxgA-22">
          <mxGeometry relative="1" as="geometry" />
        </mxCell>
        <mxCell id="75HfYSTcQHPpbCVEJxgA-20" value="" style="rounded=0;whiteSpace=wrap;html=1;shadow=0;glass=1;sketch=1;" vertex="1" parent="6KTKTbIAqn1qIDB97dUU-1">
          <mxGeometry x="680" y="320" width="480" height="240" as="geometry" />
        </mxCell>
        <mxCell id="75HfYSTcQHPpbCVEJxgA-21" value="&lt;h1&gt;Kantoor/PC Opdrachten Overzicht&lt;/h1&gt;&lt;p&gt;Dit overzicht zal vergelijkbaar zijn met de planning in de werkplaats. Te sorteren op jaar en week. Tevens zal deze tabel filters hebben met zoekfunctie.&lt;/p&gt;&lt;p&gt;Om het opvragen van informatie in de toekomst snel te houden zal niet meer dan 1 heel jaar in het overzicht staan.&lt;/p&gt;&lt;p&gt;Iedere opdracht heeft net als het klanten overzicht buttons voor het bewerken en verwijderen van een opdracht.&lt;/p&gt;&lt;p&gt;Boven aan de pagina zal ook weer een button zijn om nieuwe opdrachten toe te voegen.&amp;nbsp;&lt;/p&gt;" style="text;html=1;strokeColor=none;fillColor=none;spacing=5;spacingTop=-20;whiteSpace=wrap;overflow=hidden;rounded=0;" vertex="1" parent="6KTKTbIAqn1qIDB97dUU-1">
          <mxGeometry x="700" y="330" width="440" height="200" as="geometry" />
        </mxCell>
        <mxCell id="75HfYSTcQHPpbCVEJxgA-22" value="" style="rounded=0;whiteSpace=wrap;html=1;shadow=0;glass=1;sketch=1;" vertex="1" parent="6KTKTbIAqn1qIDB97dUU-1">
          <mxGeometry x="680" y="600" width="480" height="480" as="geometry" />
        </mxCell>
        <mxCell id="75HfYSTcQHPpbCVEJxgA-25" value="&lt;h1&gt;Kantoor/PC Opdrachten Toevoegen/Bewerken&lt;/h1&gt;&lt;p&gt;Bij het toevoegen van een opdracht zijn de volgende gegevens nodig:&lt;/p&gt;&lt;p&gt;&lt;ol&gt;&lt;li&gt;Opdrachtnummer.&lt;/li&gt;&lt;li&gt;Klant naam kort.&lt;/li&gt;&lt;li&gt;Referentie.&amp;nbsp;&lt;/li&gt;&lt;li&gt;Aantal producten.&lt;/li&gt;&lt;li&gt;Soort product.&lt;/li&gt;&lt;li&gt;Leverdatum. (Jaar)&lt;/li&gt;&lt;li&gt;Leverdatum. (Week)&lt;/li&gt;&lt;li&gt;Leverdatum. (Dag)&lt;/li&gt;&lt;li&gt;Opmerking.&lt;/li&gt;&lt;/ol&gt;&lt;div&gt;In de backend zullen nog een aantal dingen worden toegevoegd:&lt;/div&gt;&lt;div&gt;&lt;ol&gt;&lt;li&gt;Status pantser. (false)&lt;/li&gt;&lt;li&gt;Status kast. (false)&lt;/li&gt;&lt;li&gt;Status ingetrokken. (false)&lt;/li&gt;&lt;li&gt;Status geleiders. (false)&lt;/li&gt;&lt;li&gt;Status bediening. (false)&lt;/li&gt;&lt;li&gt;Status gereed. (false, update automatisch wanneer alle andere voorgaande statussen true zijn)&lt;/li&gt;&lt;li&gt;Status afgehaald. (false)&lt;/li&gt;&lt;/ol&gt;&lt;div&gt;Bij het bewerken zullen dezelfde gegevens zichtbaar zijn als het toevoegen alleen dan zijn alle velden ingevuld.&lt;/div&gt;&lt;/div&gt;&lt;/p&gt;" style="text;html=1;strokeColor=none;fillColor=none;spacing=5;spacingTop=-20;whiteSpace=wrap;overflow=hidden;rounded=0;" vertex="1" parent="6KTKTbIAqn1qIDB97dUU-1">
          <mxGeometry x="700" y="620" width="440" height="440" as="geometry" />
        </mxCell>
      </root>
    </mxGraphModel>
  </diagram>
</mxfile>
